<?xml version="1.0" encoding="UTF-8"?>
<svg id="MonolitLogo" xmlns="http://www.w3.org/2000/svg" viewBox="0 0 200.07 200.07">
  <defs>
    <style>
      .cls-1, .cls-2 {
        stroke-width: 0px;
      }

      .cls-1, .cls-3 {
        fill: #222;
      }

      .cls-4 {
        fill: none;
      }

      .cls-4, .cls-3 {
        stroke: #eee;
        stroke-miterlimit: 10;
        stroke-width: 3px;
      }

      .cls-2 {
        fill: #eee;
      }
    </style>
  </defs>
  <g id="CircleBG">
    <circle class="cls-1" cx="100.04" cy="100.04" r="98.54"/>
    <path class="cls-2" d="M100.04,3c53.59,0,97.04,43.45,97.04,97.04s-43.45,97.04-97.04,97.04S3,153.63,3,100.04,46.45,3,100.04,3M100.04,0C44.88,0,0,44.88,0,100.04s44.88,100.04,100.04,100.04,100.04-44.88,100.04-100.04S155.2,0,100.04,0h0Z"/>
  </g>
  <circle id="OuterLine" class="cls-4" cx="100.04" cy="100.04" r="88.93"/>
  <path id="GateBG" class="cls-3" d="M139.9,179.46s-15.37,9.51-39.87,9.51-39.87-9.51-39.87-9.51l13.87-106.24h52l13.87,106.24Z"/>
  <path class="cls-2" d="M127.19,148.22l-7.68-68.18h-38.95l-7.68,68.18v1.97h.01c0,.15-.01.3-.01.46,0,15,12.16,27.16,27.16,27.16s27.16-12.16,27.16-27.16c0-.15,0-.31-.01-.46h.01v-1.97Z"/>
</svg>