<?xml version="1.0" encoding="utf-8"?>
<!-- Generator: Adobe Illustrator 16.0.0, SVG Export Plug-In . SVG Version: 6.00 Build 0)  -->
<!DOCTYPE svg PUBLIC "-//W3C//DTD SVG 1.1//EN" "http://www.w3.org/Graphics/SVG/1.1/DTD/svg11.dtd">
<svg version="1.1" id="Layer_1" xmlns="http://www.w3.org/2000/svg" xmlns:xlink="http://www.w3.org/1999/xlink" x="0px" y="0px"
	 width="753.902px" height="500.559px" viewBox="0 0 753.902 500.559" enable-background="new 0 0 753.902 500.559"
	 xml:space="preserve">
<rect width="753.902" height="499.999"/>
<g>
	<path fill="#FFFFFF" d="M20.853,339.55c31.2-63.301,37.8-130.201,38.101-173.401H25.653v-48.001h151.502v204.002h-48.901V166.148
		h-21.6c-1.8,135.601-51.601,216.003-51.601,216.003L20.853,339.55z M128.254,381.55v-47.699h70.501
		c1.8-135.902,51.9-216.002,51.9-216.002l33.9,42.6c-30.9,63-37.5,129.9-37.8,173.402h33.3v47.699H128.254z"/>
	<path fill="#FFFFFF" d="M299.549,178.749v-60.9h48.901v60.9H299.549z M338.25,341.649c0,0,27-35.4,32.7-102.301h-71.4v-48H445.65
		v-73.201h48.9v121.201h-76.5c-3,37.5-13.5,92.4-44.701,141.902L338.25,341.649z"/>
	<path fill="#FFFFFF" d="M685.049,381.851v-7.5c-35.1-10.5-95.102-34.201-141.301-83.701l1.199-0.6h-1.5V166.148h-33.9v-48.001
		h223.502v48.001h-141.9v101.101c3.6,4.201,32.4,37.201,93.9,57.9v-86.701h48v143.402H685.049z M625.049,286.149v-47.701h48.9
		v47.701H625.049z"/>
</g>
<rect y="417.831" fill="#ED1C24" width="753.902" height="82.728"/>
<rect fill="#ED1C24" width="753.902" height="82.728"/>
</svg>
